<?xml version="1.0" standalone="no"?>
<!DOCTYPE svg PUBLIC "-//W3C//DTD SVG 20010904//EN"
 "http://www.w3.org/TR/2001/REC-SVG-20010904/DTD/svg10.dtd">
<svg version="1.0" xmlns="http://www.w3.org/2000/svg"
 width="260.000000pt" height="260.000000pt" viewBox="0 0 260.000000 260.000000"
 preserveAspectRatio="xMidYMid meet">
<metadata>
Created by potrace 1.14, written by Peter Selinger 2001-2017
</metadata>
<g transform="translate(0.000000,260.000000) scale(0.100000,-0.100000)"
fill="#000000" stroke="none">
<path d="M0 1300 l0 -1300 1300 0 1300 0 0 1300 0 1300 -1300 0 -1300 0 0
-1300z m1535 1042 c56 -11 155 -17 334 -19 l254 -4 -8 -92 c-4 -51 -11 -97
-16 -103 -6 -7 -46 -15 -89 -19 -44 -4 -82 -10 -84 -14 -2 -3 2 -31 11 -61 21
-81 13 -276 -16 -351 -55 -145 -146 -212 -351 -257 -59 -14 -128 -17 -330 -17
-158 0 -258 -4 -262 -10 -18 -24 -8 -85 20 -116 l28 -31 324 -39 c355 -43 414
-54 507 -100 148 -71 219 -244 193 -467 -32 -283 -181 -378 -628 -401 -200
-10 -472 2 -596 28 -242 49 -341 154 -353 377 -10 161 35 253 159 327 l66 39
-27 39 c-39 53 -55 117 -49 194 7 78 45 162 91 201 30 25 31 27 13 38 -50 28
-118 104 -146 160 -79 161 -58 415 45 550 51 67 162 122 298 147 166 31 461
31 612 1z"/>
<path d="M1112 2060 c-114 -21 -152 -64 -152 -173 0 -79 18 -129 55 -153 81
-53 341 -58 438 -8 58 31 86 119 67 211 -12 57 -45 94 -100 112 -47 16 -242
22 -308 11z"/>
<path d="M966 880 c-48 -58 -58 -88 -54 -156 5 -75 28 -107 92 -127 60 -18
446 -16 509 2 85 25 128 112 94 194 -13 30 -23 38 -68 51 -45 14 -254 41 -475
62 -70 6 -70 6 -98 -26z"/>
</g>
</svg>
